<svg width="17" height="15" viewBox="0 0 17 15" fill="none" xmlns="http://www.w3.org/2000/svg">
<g clip-path="url(#clip0_10_232)">
<path d="M16.991 7.64036C16.991 7.02582 16.9332 6.57736 16.808 6.1123H8.66931V8.88604H13.4465C13.3503 9.57536 12.8302 10.6134 11.6743 11.311L11.6581 11.4039L14.2315 13.1227L14.4097 13.1381C16.0471 11.8342 16.991 9.91583 16.991 7.64036Z" fill="#4285F4"/>
<path d="M8.66937 14.9485C11.0098 14.9485 12.9746 14.2841 14.4098 13.1381L11.6744 11.311C10.9424 11.7512 9.95997 12.0584 8.66937 12.0584C6.37706 12.0584 4.43149 10.7546 3.73795 8.95251L3.63629 8.95996L0.96053 10.7455L0.925537 10.8293C2.351 13.2709 5.27901 14.9485 8.66937 14.9485Z" fill="#34A853"/>
<path d="M3.73788 8.9525C3.55488 8.48744 3.44898 7.98912 3.44898 7.47425C3.44898 6.95933 3.55488 6.46107 3.72825 5.99601L3.7234 5.89696L1.01411 4.08276L0.925466 4.11912C0.337964 5.13231 0.000854492 6.27007 0.000854492 7.47425C0.000854492 8.67843 0.337964 9.81614 0.925466 10.8293L3.73788 8.9525Z" fill="#FBBC05"/>
<path d="M8.66937 2.89002C10.2971 2.89002 11.3951 3.49626 12.0211 4.00288L14.4676 1.9433C12.9651 0.739122 11.0098 0 8.66937 0C5.27902 0 2.351 1.67754 0.925537 4.1191L3.72832 5.99599C4.43149 4.19387 6.37706 2.89002 8.66937 2.89002Z" fill="#EB4335"/>
</g>
<defs>
<clipPath id="clip0_10_232">
<rect width="17" height="15" fill="white"/>
</clipPath>
</defs>
</svg>
