<svg width="36" height="37" viewBox="0 0 36 37" fill="none" xmlns="http://www.w3.org/2000/svg">
<path d="M18 35.2656C28.9377 35.2656 29.8125 27.7594 29.8125 18.5C29.8125 9.2406 24.5239 1.73438 18 1.73438C11.4761 1.73438 6.1875 9.2406 6.1875 18.5C6.1875 27.7594 7.06233 35.2656 18 35.2656Z" fill="#595959"/>
<mask id="mask0_1_848" style="mask-type:luminance" maskUnits="userSpaceOnUse" x="6" y="1" width="24" height="35">
<path d="M18 35.2656C28.9377 35.2656 29.8125 27.7594 29.8125 18.5C29.8125 9.2406 24.5239 1.73438 18 1.73438C11.4761 1.73438 6.1875 9.2406 6.1875 18.5C6.1875 27.7594 7.06233 35.2656 18 35.2656Z" fill="#ECECEC"/>
</mask>
<g mask="url(#mask0_1_848)">
<path d="M18 56.6562C25.1452 56.6562 30.9375 47.0793 30.9375 35.2656C30.9375 23.4519 25.1452 13.875 18 13.875C10.8548 13.875 5.0625 23.4519 5.0625 35.2656C5.0625 47.0793 10.8548 56.6562 18 56.6562Z" fill="#ECECEC"/>
</g>
<path d="M21.375 14.4531C23.5496 14.4531 25.3125 12.6413 25.3125 10.4062C25.3125 8.17122 23.5496 6.35938 21.375 6.35938C19.2004 6.35938 17.4375 8.17122 17.4375 10.4062C17.4375 12.6413 19.2004 14.4531 21.375 14.4531Z" fill="white"/>
<path d="M14.625 14.4531C16.7996 14.4531 18.5625 12.6413 18.5625 10.4062C18.5625 8.17122 16.7996 6.35938 14.625 6.35938C12.4504 6.35938 10.6875 8.17122 10.6875 10.4062C10.6875 12.6413 12.4504 14.4531 14.625 14.4531Z" fill="white"/>
<path d="M20.25 11.5625C20.8713 11.5625 21.375 11.0448 21.375 10.4062C21.375 9.76767 20.8713 9.25 20.25 9.25C19.6287 9.25 19.125 9.76767 19.125 10.4062C19.125 11.0448 19.6287 11.5625 20.25 11.5625Z" fill="#595959"/>
<path d="M15.75 11.5625C16.3713 11.5625 16.875 11.0448 16.875 10.4062C16.875 9.76767 16.3713 9.25 15.75 9.25C15.1287 9.25 14.625 9.76767 14.625 10.4062C14.625 11.0448 15.1287 11.5625 15.75 11.5625Z" fill="#595959"/>
<path fill-rule="evenodd" clip-rule="evenodd" d="M18 16.7656L21.375 12.1406H14.625L18 16.7656Z" fill="#FFAF40"/>
<path fill-rule="evenodd" clip-rule="evenodd" d="M7.3125 15.6094V20.8125H0.5625L7.3125 15.6094Z" fill="#595959"/>
<path fill-rule="evenodd" clip-rule="evenodd" d="M28.6875 15.6094V20.8125H35.4375L28.6875 15.6094Z" fill="#595959"/>
</svg>
