<svg width="60" height="47" viewBox="0 0 60 47" fill="none" xmlns="http://www.w3.org/2000/svg">
<path d="M33.3333 0.197917C32.2396 0.0729168 31.125 0 30 0C19.6042 0 10.4375 5.29167 5.0625 13.3333H33.3333V0.197917ZM10 16.6667H3.15625C1.15625 20.6875 0 25.2083 0 30H10V16.6667ZM36.6667 0.770833V13.3333H54.9375C50.75 7.07292 44.25 2.48958 36.6667 0.770833ZM50 30H60C60 25.2083 58.8438 20.6875 56.8438 16.6667H50V30ZM43.3333 36.6667V46.6667H56.6667C58.5104 46.6667 60 45.1771 60 43.3333V33.3333H42.8646C43.1354 34.4062 43.3333 35.5104 43.3333 36.6667ZM46.6667 16.6667H13.3333V30H18.5208C20.8333 26.0312 25.0833 23.3333 30 23.3333C34.9167 23.3333 39.1667 26.0312 41.4792 30H46.6667V16.6667ZM0 43.3333C0 45.1771 1.48958 46.6667 3.33333 46.6667H16.6667V36.6667C16.6667 35.5104 16.8646 34.4062 17.1354 33.3333H0V43.3333ZM30 26.6667C24.4792 26.6667 20 31.1458 20 36.6667V46.6667H40V36.6667C40 31.1458 35.5208 26.6667 30 26.6667Z" fill="#007AFF"/>
</svg>
